<svg height="38" viewBox="0 0 38 38" width="38" xmlns="http://www.w3.org/2000/svg"><rect fill="#fff" height="38" rx="19" width="38"/><path d="m419.9 142.531v-10.864a2.287 2.287 0 0 1 2.287-2.287h11.671a2.287 2.287 0 0 1 2.287 2.287v16.006a2.287 2.287 0 0 1 -2.287 2.287h-11.675a2.287 2.287 0 0 1 -2.287-2.287v-2.781" fill="#fff" transform="translate(-409.617 -121.128)"/><g fill="#242424"><path d="m433.454 150.035h-11.672a2.765 2.765 0 0 1 -2.761-2.762v-2.781a.475.475 0 0 1 .95 0v2.781a1.814 1.814 0 0 0 1.812 1.812h11.672a1.814 1.814 0 0 0 1.812-1.812v-16.006a1.814 1.814 0 0 0 -1.812-1.812h-11.673a1.814 1.814 0 0 0 -1.812 1.812v10.863a.475.475 0 1 1 -.95 0v-10.863a2.765 2.765 0 0 1 2.761-2.762h11.672a2.765 2.765 0 0 1 2.762 2.762v16.006a2.765 2.765 0 0 1 -2.761 2.762z" stroke="#242424" stroke-width=".2" transform="translate(-409.217 -120.728)"/><path d="m433.488 135.633h-6.122a2.207 2.207 0 0 0 -2.205 2.2v9.385a2.207 2.207 0 0 0 2.205 2.205h6.122a2.208 2.208 0 0 0 2.2-2.205v-9.385a2.207 2.207 0 0 0 -2.2-2.2zm1.571 11.589a1.572 1.572 0 0 1 -1.571 1.571h-6.122a1.572 1.572 0 0 1 -1.571-1.571v-6.869h9.265zm0-7.5h-9.265v-1.882a1.573 1.573 0 0 1 1.573-1.571h6.122a1.572 1.572 0 0 1 1.571 1.571z" stroke="#242424" stroke-width=".25" transform="translate(-412.025 -123.988)"/><path d="m433.431 149.438h-6.122a2.278 2.278 0 0 1 -2.273-2.273v-9.386a2.278 2.278 0 0 1 2.273-2.271h6.122a2.278 2.278 0 0 1 2.272 2.271v9.386a2.279 2.279 0 0 1 -2.272 2.273zm-6.122-13.795a2.143 2.143 0 0 0 -2.137 2.136v9.386a2.142 2.142 0 0 0 2.137 2.137h6.122a2.143 2.143 0 0 0 2.137-2.137v-9.386a2.142 2.142 0 0 0 -2.137-2.136zm6.122 13.161h-6.122a1.643 1.643 0 0 1 -1.64-1.639v-6.937h9.4v6.937a1.643 1.643 0 0 1 -1.638 1.635zm-7.626-8.441v6.8a1.507 1.507 0 0 0 1.5 1.5h6.122a1.507 1.507 0 0 0 1.5-1.5v-6.8zm9.265-.633h-9.4v-1.951a1.643 1.643 0 0 1 1.64-1.639h6.122a1.643 1.643 0 0 1 1.639 1.639zm-9.27-.13h9.13v-1.816a1.507 1.507 0 0 0 -1.5-1.5h-6.122a1.507 1.507 0 0 0 -1.5 1.5z" stroke="#242424" stroke-width=".2" transform="translate(-411.968 -123.931)"/><path d="m429.889 139.394a.294.294 0 0 0 -.287.3v.515a.3.3 0 0 0 .271.317.293.293 0 0 0 .3-.285c0-.011 0-.022 0-.032v-.509a.294.294 0 0 0 -.284-.306z" stroke="#242424" stroke-width=".4" transform="translate(-414.056 -125.708)"/><path d="m429.832 140.539h-.02a.364.364 0 0 1 -.335-.388v-.512a.363.363 0 0 1 .354-.37.363.363 0 0 1 .353.37v.516.035a.374.374 0 0 1 -.123.26.344.344 0 0 1 -.229.089zm0-1.135a.227.227 0 0 0 -.219.234v.516a.228.228 0 0 0 .206.249.188.188 0 0 0 .152-.054.235.235 0 0 0 .078-.167.189.189 0 0 0 0-.025v-.519a.227.227 0 0 0 -.217-.238z" transform="translate(-413.999 -125.651)"/><path d="m434.58 139.394a.294.294 0 0 0 -.287.3v.515a.3.3 0 0 0 .271.317.293.293 0 0 0 .3-.285c0-.011 0-.022 0-.032v-.509a.294.294 0 0 0 -.284-.306z" stroke="#242424" stroke-width=".4" transform="translate(-416.202 -125.708)"/><path d="m434.523 140.539h-.02a.364.364 0 0 1 -.335-.388v-.512a.363.363 0 0 1 .354-.37.363.363 0 0 1 .354.37v.516.035a.372.372 0 0 1 -.123.26.343.343 0 0 1 -.23.089zm0-1.135a.227.227 0 0 0 -.219.234v.516a.229.229 0 0 0 .207.249.186.186 0 0 0 .152-.054.235.235 0 0 0 .078-.167.17.17 0 0 0 0-.025v-.519a.228.228 0 0 0 -.218-.238z" transform="translate(-416.145 -125.651)"/><path d="m439.271 139.394a.3.3 0 0 0 -.286.3v.515a.3.3 0 0 0 .271.317.293.293 0 0 0 .3-.285c0-.011 0-.022 0-.032v-.509a.3.3 0 0 0 -.285-.306z" stroke="#242424" stroke-width=".4" transform="translate(-418.347 -125.708)"/><path d="m439.214 140.539h-.02a.365.365 0 0 1 -.335-.388v-.512a.363.363 0 0 1 .355-.37.363.363 0 0 1 .353.37v.516.035a.372.372 0 0 1 -.123.26.343.343 0 0 1 -.23.089zm0-1.135a.227.227 0 0 0 -.219.234v.516a.229.229 0 0 0 .207.249.189.189 0 0 0 .152-.054.235.235 0 0 0 .078-.167.189.189 0 0 0 0-.025v-.519a.227.227 0 0 0 -.218-.238z" transform="translate(-418.29 -125.651)"/></g><path d="m431.165 149.553h.792l-1 2.627a.381.381 0 0 0 .633.394l3.423-3.506a.481.481 0 0 0 -.347-.814h-.553l1.035-1.658a.489.489 0 0 0 .012-.488.48.48 0 0 0 -.424-.247h-2.119a.836.836 0 0 0 -.778.522c-1.2 2.668-1.128 2.5-1.132 2.513a.482.482 0 0 0 .455.657zm1.243-2.944a.236.236 0 0 1 .221-.15h1.9l-1.073 1.72a.442.442 0 0 0 .374.678h.556l-2.477 2.537.7-1.849a.441.441 0 0 0 -.261-.566.428.428 0 0 0 -.154-.027h-.839c1.141-2.533 1.051-2.33 1.055-2.343z" fill="#f26314" stroke="#f26314" stroke-width=".4" transform="translate(-414.548 -128.666)"/><path d="m431.26 152.7a.444.444 0 0 1 -.151-.026.45.45 0 0 1 -.271-.575l.963-2.537h-.693a.581.581 0 0 1 -.207-.037.549.549 0 0 1 -.311-.712c.01-.028.036-.086.1-.222l1.034-2.3a.9.9 0 0 1 .837-.563h2.125a.551.551 0 0 1 .48.282.559.559 0 0 1 -.015.557l-.97 1.555h.43a.549.549 0 0 1 .4.929l-3.423 3.507a.451.451 0 0 1 -.328.142zm-.153-3.273h.893l-1.033 2.719a.313.313 0 0 0 .521.323l3.423-3.506a.407.407 0 0 0 .115-.294.413.413 0 0 0 -.414-.4h-.675l1.1-1.762a.421.421 0 0 0 .011-.42.414.414 0 0 0 -.361-.212h-2.127a.765.765 0 0 0 -.712.48l-1.036 2.3-.095.211a.414.414 0 0 0 .234.538.422.422 0 0 0 .15.028h.006zm.789 1.956-.112-.072.7-1.849a.367.367 0 0 0 -.011-.284.373.373 0 0 0 -.209-.194.328.328 0 0 0 -.13-.023h-.945l.916-2.035.177-.395v-.006a.3.3 0 0 1 .284-.193h2.019l-1.138 1.823a.374.374 0 0 0 .316.575h.717zm.241-2.557a.5.5 0 0 1 .175.031.509.509 0 0 1 .3.653l-.586 1.545 2.136-2.188h-.394a.511.511 0 0 1 -.5-.4.5.5 0 0 1 .067-.384l1.008-1.615h-1.773a.171.171 0 0 0 -.158.107h-.007c-.017.06-.069.174-.175.409l-.83 1.844h.737zm.269-2.256h.007z" fill="#f26314" transform="translate(-414.49 -128.608)"/><path d="m449 157.5v-.95c.9 0 1.659-.479 1.659-1.046v-2.264c0-.567-.76-1.046-1.659-1.046v-.95c1.463 0 2.609.876 2.609 2v2.269c-.001 1.115-1.147 1.987-2.609 1.987z" fill="#242424" stroke="#242424" stroke-width=".2" transform="translate(-422.928 -131.129)"/><path d="m449 140.166v-.95c.9 0 1.659-.479 1.659-1.045v-2.271c0-.566-.76-1.045-1.659-1.045v-.95c1.463 0 2.609.876 2.609 1.995v2.27c-.001 1.12-1.147 1.996-2.609 1.996z" fill="#242424" stroke="#242424" stroke-width=".2" transform="translate(-422.928 -123.199)"/></svg>