<svg height="38" viewBox="0 0 38 38" width="38" xmlns="http://www.w3.org/2000/svg"><rect fill="none" height="38" rx="19" width="38"/><path d="m425.849 279.926h12.38a2.455 2.455 0 0 1 2.606 2.27v11.587a2.455 2.455 0 0 1 -2.606 2.271h-18.241a2.456 2.456 0 0 1 -2.606-2.271v-11.583a2.456 2.456 0 0 1 2.606-2.27h3.169" fill="#fff" transform="translate(-410.579 -268.579)"/><path d="m437.857 296.186h-18.24a2.96 2.96 0 0 1 -3.11-2.774v-11.587a2.96 2.96 0 0 1 3.11-2.774h3.169a.5.5 0 1 1 0 1.007h-3.169a1.959 1.959 0 0 0 -2.1 1.767v11.587a1.96 1.96 0 0 0 2.1 1.767h18.24a1.959 1.959 0 0 0 2.1-1.767v-11.587a1.959 1.959 0 0 0 -2.1-1.767h-12.379a.5.5 0 0 1 0-1.007h12.379a2.959 2.959 0 0 1 3.11 2.774v11.587a2.959 2.959 0 0 1 -3.11 2.774z" fill="#242424" stroke="#242424" stroke-width=".2" transform="translate(-410.207 -268.207)"/><rect fill="#fff" height="8.986" rx="2.137" width="8.511" x="19.432" y="14.918"/><g fill="#242424"><path d="m446.247 295.251h-6.052a1.735 1.735 0 0 1 -1.733-1.733v-6.527a1.735 1.735 0 0 1 1.733-1.733h6.052a1.734 1.734 0 0 1 1.733 1.733v6.527a1.734 1.734 0 0 1 -1.733 1.733zm-6.052-8.986a.727.727 0 0 0 -.727.726v6.527a.727.727 0 0 0 .727.726h6.052a.727.727 0 0 0 .726-.726v-6.527a.727.727 0 0 0 -.726-.726z" stroke="#242424" stroke-width=".2" transform="translate(-419.532 -270.844)"/><path d="m450.975 290.084a.3.3 0 0 0 .289-.3v-.518a.3.3 0 0 0 -.273-.319.294.294 0 0 0 -.3.287.315.315 0 0 0 0 .032v.518a.3.3 0 0 0 .284.3z" stroke="#242424" stroke-width=".4" transform="translate(-424.724 -272.408)"/><path d="m450.922 290.1a.369.369 0 0 1 -.359-.376v-.554a.378.378 0 0 1 .124-.265.343.343 0 0 1 .255-.091.371.371 0 0 1 .34.4v.515a.369.369 0 0 1 -.36.371zm0-1.142a.207.207 0 0 0 -.139.055.234.234 0 0 0 -.077.165v.547a.217.217 0 1 0 .432 0v-.518a.228.228 0 0 0 -.2-.248z" transform="translate(-424.671 -272.354)"/><path d="m446.521 290.084a.3.3 0 0 0 .289-.3v-.518a.3.3 0 0 0 -.273-.319.294.294 0 0 0 -.3.287.283.283 0 0 0 0 .032v.518a.3.3 0 0 0 .284.3z" stroke="#242424" stroke-width=".4" transform="translate(-422.833 -272.408)"/><path d="m442.067 290.084a.3.3 0 0 0 .289-.3v-.518a.3.3 0 0 0 -.273-.319.294.294 0 0 0 -.3.287.315.315 0 0 0 0 .032v.518a.3.3 0 0 0 .284.3z" stroke="#242424" stroke-width=".4" transform="translate(-420.941 -272.408)"/><path d="m442.013 290.1a.369.369 0 0 1 -.36-.376v-.518a.346.346 0 0 1 0-.036.377.377 0 0 1 .124-.265.344.344 0 0 1 .255-.091.371.371 0 0 1 .341.4v.515a.369.369 0 0 1 -.36.371zm0-1.142a.205.205 0 0 0 -.139.055.234.234 0 0 0 -.077.165.186.186 0 0 0 0 .025v.522a.217.217 0 1 0 .432 0v-.518a.228.228 0 0 0 -.2-.248z" transform="translate(-420.887 -272.354)"/></g><path d="m425.159 292.068h.833l-1.049 2.762a.4.4 0 0 0 .666.414l3.6-3.687a.506.506 0 0 0 -.365-.856h-.581l1.088-1.743a.514.514 0 0 0 .013-.514.506.506 0 0 0 -.445-.26h-2.229a.881.881 0 0 0 -.818.549c-1.264 2.806-1.186 2.631-1.191 2.643a.506.506 0 0 0 .287.656.516.516 0 0 0 .191.036zm1.306-3.1a.25.25 0 0 1 .232-.158h1.993l-1.128 1.808a.465.465 0 0 0 .393.713h.585l-2.6 2.667.738-1.943a.464.464 0 0 0 -.274-.6.47.47 0 0 0 -.162-.029h-.882c1.2-2.663 1.1-2.449 1.109-2.463z" fill="#f26314" stroke="#f26314" stroke-width=".2" transform="translate(-413.664 -272.086)"/><path d="m425.267 295.385a.468.468 0 0 1 -.427-.272.466.466 0 0 1 -.017-.361l1.012-2.666h-.729a.6.6 0 0 1 -.217-.04.579.579 0 0 1 -.327-.749c.01-.028.034-.082.09-.205l1.1-2.441a.946.946 0 0 1 .88-.591h2.235a.578.578 0 0 1 .505.3.59.59 0 0 1 -.015.586l-1.02 1.634h.451a.578.578 0 0 1 .418.978l-3.6 3.687a.475.475 0 0 1 -.339.14zm-.162-3.442h.939l-1.086 2.86a.329.329 0 0 0 .2.42.33.33 0 0 0 .348-.081l3.6-3.687a.434.434 0 0 0 -.314-.734h-.71l1.157-1.854a.443.443 0 0 0 .011-.441.432.432 0 0 0 -.379-.223h-2.235a.8.8 0 0 0 -.747.5l-1.1 2.444-.089.194a.435.435 0 0 0 .4.595h.006zm.83 2.058-.119-.076.739-1.944a.392.392 0 0 0 -.232-.5.4.4 0 0 0 -.134-.024h-1l.861-1.911.289-.644v-.007a.319.319 0 0 1 .3-.2h2.124l-1.2 1.918a.392.392 0 0 0 .33.6h.758zm.254-2.69a.527.527 0 0 1 .183.033.534.534 0 0 1 .318.687l-.616 1.621 2.244-2.3h-.418a.514.514 0 0 1 -.288-.083.538.538 0 0 1 -.166-.74l1.06-1.7h-1.864a.176.176 0 0 0 -.165.112h-.011c-.022.081-.1.255-.284.661l-.769 1.708h.774zm.281-2.372h.011z" fill="#f26314" transform="translate(-413.611 -272.033)"/><path d="m427.851 309.891h-2.406c-1.186 0-2.115-1.215-2.115-2.766h1.007c0 .954.508 1.759 1.109 1.759h2.406c.6 0 1.109-.805 1.109-1.759h1.007c-.002 1.551-.931 2.766-2.117 2.766z" fill="#242424" stroke="#242424" stroke-width=".2" transform="translate(-413.105 -280.131)"/><path d="m445.189 309.891h-2.405c-1.186 0-2.115-1.215-2.115-2.766h1.007c0 .954.508 1.759 1.108 1.759h2.405c.6 0 1.109-.805 1.109-1.759h1.002c0 1.551-.924 2.766-2.111 2.766z" fill="#242424" stroke="#242424" stroke-width=".2" transform="translate(-420.47 -280.131)"/><path d="m20.105 7.952h6.47" fill="#fff"/><path d="m446.6 274.156h-6.47a.5.5 0 1 1 0-1.007h6.47a.5.5 0 1 1 0 1.007z" fill="#242424" stroke="#242424" stroke-width=".2" transform="translate(-420.029 -265.7)"/><path d="m21.381 8.132v2.835" fill="#fff"/><path d="m442.351 277.3a.5.5 0 0 1 -.5-.5v-2.835a.5.5 0 1 1 1.007 0v2.835a.5.5 0 0 1 -.507.5z" fill="#242424" stroke="#242424" stroke-width=".2" transform="translate(-420.97 -265.833)"/><path d="m25.301 8.132v2.835" fill="#fff"/><path d="m449.165 277.3a.5.5 0 0 1 -.5-.5v-2.835a.5.5 0 0 1 1.007 0v2.835a.5.5 0 0 1 -.507.5z" fill="#242424" stroke="#242424" stroke-width=".2" transform="translate(-423.864 -265.833)"/><path d="m19.432 19.113h8.511" fill="#fff"/><g fill="#242424" stroke="#242424"><path d="m447.476 293.556h-8.511a.5.5 0 0 1 0-1.007h8.511a.5.5 0 0 1 0 1.007z" stroke-width=".2" transform="translate(-419.532 -273.94)"/><circle cx="25.268" cy="21.577" r=".684" stroke-width=".4"/><circle cx="22.109" cy="21.577" r=".684" stroke-width=".4"/></g></svg>