<svg height="38" viewBox="0 0 38 38" width="38" xmlns="http://www.w3.org/2000/svg"><rect fill="none" height="38" rx="19" width="38"/><path d="m24.138 12.567c-.212-2.99-2.4-3.6-4.384-3.6h.223a3.6 3.6 0 0 0 -3.59 3.375h-2.5a.746.746 0 1 0 0 1.493h6.47a.746.746 0 1 0 0-1.493h-2.466a2.1 2.1 0 0 1 2.085-1.882h.84a2.111 2.111 0 0 1 2.109 2.108v10.238a5.154 5.154 0 0 0 -2.223-.694 48.189 48.189 0 0 0 -7.042.466c-3.149.236-6.182-.808-9.234-1.42a.741.741 0 0 0 -.291 0 23.274 23.274 0 0 0 -3.481-.634c-.689-.068-.833.756-.446 1.161a.619.619 0 0 0 -.01.2l.823 6.79a4.106 4.106 0 0 0 4.1 4.063h14.795a4.347 4.347 0 0 0 4.222-3.71zm-8.593 11.22c.987-.1 1.972-.192 2.958-.251.731-.044 1.463-.07 2.2-.051a4.093 4.093 0 0 1 1.841.482c.128.057.258.11.382.179a4.718 4.718 0 0 1 -1.087.3 23.154 23.154 0 0 1 -8.512-.468c-.14-.035-.277-.072-.416-.109a20.567 20.567 0 0 0 2.634-.082zm7.242 4.733-.01.111a2.864 2.864 0 0 1 -2.861 2.861h-14.795a2.864 2.864 0 0 1 -2.861-2.86l-.799-6.632c5.3.738 10.081 3.474 15.442 3.985a15.92 15.92 0 0 0 6.022-.433z" fill="#242424" stroke="#fff" stroke-width=".2" transform="translate(7.291 -1.666)"/><g fill="#f77c25"><path d="m148.75 75.495v-2.415a.746.746 0 1 0 -1.493 0v2.414a.746.746 0 1 0 1.493 0z" transform="translate(-125.875 -58.969)"/><path d="m172.616 75.495v-2.415a.746.746 0 1 0 -1.493 0v2.414a.746.746 0 1 0 1.493 0z" transform="translate(-147.457 -58.969)"/><path d="m198.615 75.495v-2.415a.746.746 0 0 0 -1.493 0v2.414a.746.746 0 1 0 1.493 0z" transform="translate(-170.967 -58.969)"/></g><path d="m3083.913 816.387.536 4.813" fill="none" stroke="#f77c25" stroke-linecap="round" transform="translate(-3073.529 -793.799)"/></svg>