<svg height="38" viewBox="0 0 38 38" width="38" xmlns="http://www.w3.org/2000/svg"><g transform="translate(-3056 -794)"><rect fill="#fff" height="38" rx="19" width="38" x="3056" y="794"/><g fill="#242424" stroke-width=".4"><path d="m101.371 217.181h-3.74a.887.887 0 0 1 -.886-.886v-.495a.887.887 0 0 1 .886-.886h3.162a.388.388 0 1 0 0-.776h-3.162a.887.887 0 0 1 -.886-.886v-.494a.887.887 0 0 1 .886-.886h3.017a.388.388 0 1 0 0-.776h-3.017a.887.887 0 0 1 -.886-.886v-.494a.887.887 0 0 1 .886-.886h2.869a.388.388 0 0 0 0-.776h-2.869a.887.887 0 0 1 -.886-.886v-.494a.887.887 0 0 1 .885-.886h2.729a.388.388 0 0 0 0-.776h-2.626a1.969 1.969 0 0 1 -.987-1.71v-.99a.388.388 0 0 0 -.776 0v.99a2.743 2.743 0 0 0 .806 1.948 1.662 1.662 0 0 0 -.806 1.424v.494a1.658 1.658 0 0 0 .6 1.274 1.658 1.658 0 0 0 -.6 1.274v.494a1.658 1.658 0 0 0 .6 1.274 1.658 1.658 0 0 0 -.6 1.274v.494a1.658 1.658 0 0 0 .6 1.274 1.658 1.658 0 0 0 -.6 1.274v.494a1.663 1.663 0 0 0 1.661 1.661h3.739a.388.388 0 0 0 0-.776z" stroke="#222" transform="translate(2970.559 608.761)"/><path d="m108.872 9.564a.388.388 0 0 1 -.388-.388v-.828a1.97 1.97 0 0 0 -1.068-1.755l-2.456-1.273a.388.388 0 0 1 -.209-.344v-.726h-4.27v.726a.388.388 0 0 1 -.209.344l-2.458 1.273a1.97 1.97 0 0 0 -1.068 1.755v3.033a.388.388 0 1 1 -.776 0v-3.033a2.743 2.743 0 0 1 1.487-2.448l2.243-1.16v-.524a1.277 1.277 0 0 1 -.983-1.241v-1.7a1.277 1.277 0 0 1 1.283-1.275h5.387a1.277 1.277 0 0 1 1.275 1.275v1.7a1.277 1.277 0 0 1 -1.132 1.267v.5l2.243 1.158a2.743 2.743 0 0 1 1.487 2.444v.828a.388.388 0 0 1 -.388.392zm-2.989-6.589v-1.7a.5.5 0 0 0 -.5-.5h-5.383a.5.5 0 0 0 -.5.5v1.7a.5.5 0 0 0 .5.5h5.387a.5.5 0 0 0 .5-.5z" stroke="#222" transform="translate(2970.558 800.247)"/><path d="m213.6 242.836a.684.684 0 0 0 -.492-.211h-9.663a.68.68 0 0 0 -.68.713l.087 1.822a.388.388 0 0 0 .775-.037l-.082-1.722h9.464l-.525 11.05a1.389 1.389 0 0 1 -1.389 1.325h-5.635a1.389 1.389 0 0 1 -1.389-1.325l-.365-7.675a.388.388 0 1 0 -.775.037l.365 7.675a2.164 2.164 0 0 0 2.164 2.063h5.635a2.164 2.164 0 0 0 2.164-2.063l.53-11.149a.684.684 0 0 0 -.187-.5z" stroke="#222" transform="translate(2869.287 570.167)"/></g><path d="m237.337 328.828h5.339a.769.769 0 0 0 .769-.734l.343-7.209a.388.388 0 0 0 -.387-.406h-6.788a.388.388 0 0 0 -.387.406l.343 7.209a.769.769 0 0 0 .768.734zm5.334-.776h-5.328l-.141-2.964.711-.277a2.218 2.218 0 0 1 1.927.149 3.024 3.024 0 0 0 2.639.184l.337-.137zm.323-6.8-.138 2.9-.67.272a2.244 2.244 0 0 1 -1.958-.136 2.989 2.989 0 0 0 -2.6-.2l-.468.182-.143-3.017h5.975z" fill="#f26314" stroke="#f26314" stroke-width=".2" transform="translate(2837.556 496.338)"/><path d="m3068.725 812.287s-.022-2.969 0-3.4.55-1.4 3-1.95" fill="none" stroke="#f77c25" stroke-linecap="round"/><path d="m3079.325 810.813v1.15" fill="none" stroke="#222" stroke-linecap="round" stroke-width="1.2" transform="translate(0 1)"/></g></svg>