<svg xmlns="http://www.w3.org/2000/svg" width="22" height="22" viewBox="0 0 22 22"><g transform="translate(-1857 583)"><rect width="22" height="22" transform="translate(1857 -583)" fill="none"/><g transform="translate(1859 -581)" style="isolation:isolate"><path d="M6.681,0H1.264A1.265,1.265,0,0,0,0,1.264v3.25A1.265,1.265,0,0,0,1.264,5.778H6.681A1.265,1.265,0,0,0,7.945,4.514V1.264A1.265,1.265,0,0,0,6.681,0Zm0,0" fill="none" stroke="#303030" stroke-width="1"/><path d="M6.681,213.332H1.264A1.265,1.265,0,0,0,0,214.6v7.583a1.265,1.265,0,0,0,1.264,1.264H6.681a1.265,1.265,0,0,0,1.264-1.264V214.6A1.265,1.265,0,0,0,6.681,213.332Zm0,0" transform="translate(0 -206.11)" fill="none" stroke="#303030" stroke-width="1"/><path d="M284.013,341.332H278.6a1.265,1.265,0,0,0-1.264,1.264v3.25a1.265,1.265,0,0,0,1.264,1.264h5.417a1.265,1.265,0,0,0,1.264-1.264V342.6A1.265,1.265,0,0,0,284.013,341.332Zm0,0" transform="translate(-267.943 -329.776)" fill="none" stroke="#303030" stroke-width="1"/><path d="M284.013,0H278.6a1.265,1.265,0,0,0-1.264,1.264V8.847a1.265,1.265,0,0,0,1.264,1.264h5.417a1.265,1.265,0,0,0,1.264-1.264V1.264A1.265,1.265,0,0,0,284.013,0Zm0,0" transform="translate(-267.943)" fill="none" stroke="#303030" stroke-width="1"/></g></g></svg>