<svg xmlns="http://www.w3.org/2000/svg" width="38" height="38" viewBox="0 0 38 38"><g transform="translate(-3056 -794)"><g transform="translate(67 -429)"><rect width="38" height="38" rx="19" transform="translate(2989 1223)" fill="none"/></g><g transform="translate(-1.471 -1.753)"><g transform="translate(3068 802)"><path d="M101.371,217.181H97.631a.887.887,0,0,1-.886-.886V215.8a.887.887,0,0,1,.886-.886h3.162a.388.388,0,1,0,0-.776H97.631a.887.887,0,0,1-.886-.886v-.494a.887.887,0,0,1,.886-.886h3.017a.388.388,0,1,0,0-.776H97.631a.887.887,0,0,1-.886-.886v-.494a.887.887,0,0,1,.886-.886H100.5a.388.388,0,0,0,0-.776H97.631a.887.887,0,0,1-.886-.886v-.494a.887.887,0,0,1,.885-.886h2.729a.388.388,0,0,0,0-.776H97.733a1.969,1.969,0,0,1-.987-1.71v-.99a.388.388,0,0,0-.776,0v.99a2.743,2.743,0,0,0,.806,1.948,1.662,1.662,0,0,0-.806,1.424v.494a1.658,1.658,0,0,0,.6,1.274,1.658,1.658,0,0,0-.6,1.274v.494a1.658,1.658,0,0,0,.6,1.274,1.658,1.658,0,0,0-.6,1.274v.494a1.658,1.658,0,0,0,.6,1.274,1.658,1.658,0,0,0-.6,1.274v.494a1.663,1.663,0,0,0,1.661,1.661h3.739a.388.388,0,0,0,0-.776Z" transform="translate(-95.97 -191.486)" fill="#242424" stroke="#222" stroke-width="0.4"/><path d="M108.872,9.564a.388.388,0,0,1-.388-.388V8.348a1.97,1.97,0,0,0-1.068-1.755L104.96,5.32a.388.388,0,0,1-.209-.344V4.25h-4.27v.726a.388.388,0,0,1-.209.344L97.814,6.593a1.97,1.97,0,0,0-1.068,1.755v3.033a.388.388,0,1,1-.776,0V8.348A2.743,2.743,0,0,1,97.457,5.9L99.7,4.74V4.216a1.277,1.277,0,0,1-.983-1.241v-1.7A1.277,1.277,0,0,1,100,0h5.387a1.277,1.277,0,0,1,1.275,1.275v1.7a1.277,1.277,0,0,1-1.132,1.267v.5L107.773,5.9a2.743,2.743,0,0,1,1.487,2.444v.828A.388.388,0,0,1,108.872,9.564Zm-2.989-6.589v-1.7a.5.5,0,0,0-.5-.5H100a.5.5,0,0,0-.5.5v1.7a.5.5,0,0,0,.5.5h5.387a.5.5,0,0,0,.5-.5Z" transform="translate(-95.971)" fill="#242424" stroke="#222" stroke-width="0.4"/><path d="M213.6,242.836a.684.684,0,0,0-.492-.211h-9.663a.68.68,0,0,0-.68.713l.087,1.822a.388.388,0,0,0,.775-.037l-.082-1.722h9.464l-.525,11.05a1.389,1.389,0,0,1-1.389,1.325h-5.635a1.389,1.389,0,0,1-1.389-1.325l-.365-7.675a.388.388,0,1,0-.775.037l.365,7.675a2.164,2.164,0,0,0,2.164,2.063h5.635a2.164,2.164,0,0,0,2.164-2.063l.53-11.149a.684.684,0,0,0-.187-.5Z" transform="translate(-197.242 -230.08)" fill="#242424" stroke="#222" stroke-width="0.4"/><path d="M237.337,328.828h5.339a.769.769,0,0,0,.769-.734l.343-7.209a.388.388,0,0,0-.387-.406h-6.788a.388.388,0,0,0-.387.406l.343,7.209A.769.769,0,0,0,237.337,328.828Zm5.334-.776h-5.328l-.141-2.964.711-.277a2.218,2.218,0,0,1,1.927.149,3.024,3.024,0,0,0,2.639.184l.337-.137Zm.323-6.8-.138,2.9-.67.272a2.244,2.244,0,0,1-1.958-.136,2.989,2.989,0,0,0-2.6-.2l-.468.182-.143-3.017h5.975Z" transform="translate(-228.973 -303.909)" fill="#f26314" stroke="#f26314" stroke-width="0.2"/></g></g><path d="M3068.725,812.287s-.022-2.969,0-3.4.55-1.4,3-1.95" fill="none" stroke="#f77c25" stroke-linecap="round" stroke-width="1"/><path d="M3079.325,810.813v1.15" transform="translate(0 1)" fill="none" stroke="#222" stroke-linecap="round" stroke-width="1.2"/></g></svg>