<svg xmlns="http://www.w3.org/2000/svg" width="31" height="31" viewBox="0 0 31 31"><g transform="translate(-7869 -786)"><g transform="translate(1 -30)"><rect width="31" height="31" rx="15.5" transform="translate(7868 816)" fill="none"/><g transform="translate(4813.169 -497.506)"><path d="M3091.44,1333.448l4.7-4.021-4.8-4.11c0,.356,0,.6,0,.839-.008.289-.13.5-.448.491-.293-.012-.406-.218-.4-.493a5.351,5.351,0,0,1,.048-.964,1.685,1.685,0,0,1,1.709-1.291q6.509-.012,13.018,0a1.664,1.664,0,0,1,1.775,1.81c.007,2.373-.045,4.748.019,7.119a1.894,1.894,0,0,1-2.122,2.137c-4.058-.039-8.117-.014-12.175-.015a6.225,6.225,0,0,1-.757-.024,1.672,1.672,0,0,1-1.514-1.638,1.81,1.81,0,0,1,.014-.668.677.677,0,0,1,.419-.4c.113-.018.347.218.391.378a3.116,3.116,0,0,1,.018.791Zm14.018-8.645h-13.314a.256.256,0,0,0,.131.195q3.04,2.6,6.075,5.2a.574.574,0,0,0,.877-.03q2.934-2.531,5.883-5.042C3105.213,1325.042,3105.307,1324.945,3105.458,1324.8Zm-13.414,9.25H3105.5l-4.75-4.067c-.375.326-.72.632-1.071.932a1.248,1.248,0,0,1-1.815-.008c-.351-.3-.7-.6-1.065-.923Zm14.116-.558v-8.141l-4.756,4.074Z" transform="translate(-27.19)" fill="#222" stroke="#222" stroke-width="0.2"/><path d="M3063.083,1397.218c.589,0,1.178,0,1.768,0,.291,0,.563.054.561.411s-.275.445-.586.444q-1.747,0-3.494,0c-.3,0-.545-.081-.557-.428-.012-.364.246-.427.54-.427Z" transform="translate(0 -67.144)" fill="#f77c25" stroke="#f77c25" stroke-width="0.2"/><path d="M3077.474,1372.561c-.405,0-.811,0-1.216,0-.276,0-.473-.117-.471-.413a.417.417,0,0,1,.468-.431q1.217-.014,2.433,0a.418.418,0,0,1,.47.428c0,.3-.193.414-.467.416C3078.286,1372.564,3077.88,1372.562,3077.474,1372.561Z" transform="translate(-13.748 -43.786)" fill="#f77c25" stroke="#f77c25" stroke-width="0.2"/></g></g></g></svg>