<svg xmlns="http://www.w3.org/2000/svg" width="32" height="32" viewBox="0 0 32 32"><g transform="translate(-7126 241)"><g transform="translate(57 -539)"><rect width="32" height="32" transform="translate(7069 298)" fill="none"/><g transform="translate(7073.75 301.75)"><g transform="translate(0 7.715)"><path d="M15.34,180.429a.443.443,0,0,0-.443.443v3.059a2.219,2.219,0,0,1-2.217,2.217H7.893a.443.443,0,0,0-.443.443v.881l-1.058-1.058a.443.443,0,0,0-.407-.266H3.1a2.219,2.219,0,0,1-2.217-2.217V177.1A2.219,2.219,0,0,1,3.1,174.887H7.582a.443.443,0,1,0,0-.887H3.1A3.107,3.107,0,0,0,0,177.1v6.828a3.107,3.107,0,0,0,3.1,3.1H5.757l1.821,1.821a.443.443,0,0,0,.757-.313v-1.508H12.68a3.107,3.107,0,0,0,3.1-3.1v-3.059A.443.443,0,0,0,15.34,180.429Z" transform="translate(0 -174)" fill="#303030" stroke="#303030" stroke-width="0.4"/></g><g transform="translate(8.69)"><path d="M203.566,0h-1.122a6.444,6.444,0,0,0,0,12.888h1.122a6.456,6.456,0,0,0,1.636-.21l1.658,1.657a.443.443,0,0,0,.757-.314V11.456a6.506,6.506,0,0,0,1.694-2.088,6.375,6.375,0,0,0,.7-2.924A6.451,6.451,0,0,0,203.566,0Zm3.34,10.886a.443.443,0,0,0-.177.354v1.711l-1.085-1.084a.443.443,0,0,0-.444-.11,5.559,5.559,0,0,1-1.635.244h-1.122a5.557,5.557,0,1,1,0-11.115h1.122a5.557,5.557,0,0,1,3.34,10Z" transform="translate(-196 0)" fill="#f77c25" stroke="#f77c25" stroke-width="0.4"/></g><g transform="translate(13.942 3.106)"><path d="M318.212,71.808a1.881,1.881,0,0,0-1.74-1.74,1.863,1.863,0,0,0-1.413.5,1.884,1.884,0,0,0-.6,1.372.443.443,0,1,0,.887,0,.99.99,0,0,1,1.061-.988.991.991,0,0,1,.147,1.954.839.839,0,0,0-.661.822v1.065a.443.443,0,1,0,.887,0v-1.03A1.867,1.867,0,0,0,318.212,71.808Z" transform="translate(-314.462 -70.063)" fill="#f77c25" stroke="#f77c25" stroke-width="0.4"/></g><g transform="translate(15.376 9.148)"><path d="M347.557,206.46a.444.444,0,1,0,.13.313A.447.447,0,0,0,347.557,206.46Z" transform="translate(-346.8 -206.33)" fill="#f77c25" stroke="#f77c25" stroke-width="0.4"/></g><g transform="translate(2.394 13.744)"><path d="M63.8,310H54.443a.443.443,0,0,0,0,.887H63.8a.443.443,0,1,0,0-.887Z" transform="translate(-54 -310)" fill="#303030" stroke="#303030" stroke-width="0.4"/></g><g transform="translate(11.749 16.227)"><path d="M265.757,366.13a.443.443,0,1,0,.13.314A.447.447,0,0,0,265.757,366.13Z" transform="translate(-265 -366)" fill="#303030" stroke="#303030" stroke-width="0.4"/></g><g transform="translate(2.394 16.227)"><path d="M62.054,366H54.443a.443.443,0,0,0,0,.887h7.611a.443.443,0,1,0,0-.887Z" transform="translate(-54 -366)" fill="#303030" stroke="#303030" stroke-width="0.4"/></g><g transform="translate(2.394 11.261)"><path d="M60.916,254H54.443a.443.443,0,0,0,0,.887h6.473a.443.443,0,1,0,0-.887Z" transform="translate(-54 -254)" fill="#303030" stroke="#303030" stroke-width="0.4"/></g></g></g></g></svg>