<svg xmlns="http://www.w3.org/2000/svg" width="38" height="38" viewBox="0 0 38 38"><g transform="translate(-6275 309)"><rect width="38" height="38" rx="19" transform="translate(6275 -309)" opacity="0"/><g transform="translate(6235.244 -300.609)"><g transform="translate(50.529)"><g transform="translate(0)"><path d="M65.532.527h0A.94.94,0,0,0,64.51.683L63.185,1.856,61.383.243a.954.954,0,0,0-1.272,0l-1.8,1.611L56.508.243a.954.954,0,0,0-1.273,0l-1.8,1.612L52.106.683a.948.948,0,0,0-1.578.715v17.59a.949.949,0,0,0,1.58.715l1.325-1.173,1.8,1.612a.954.954,0,0,0,1.272,0l1.8-1.611,1.8,1.611a.954.954,0,0,0,1.273,0l1.8-1.612L64.512,19.7a.948.948,0,0,0,1.578-.715V1.4A.94.94,0,0,0,65.532.527ZM63.817,17.814a.953.953,0,0,0-1.268,0l-1.8,1.612-1.8-1.611a.954.954,0,0,0-1.273,0l-1.8,1.611-1.8-1.612a.948.948,0,0,0-1.264,0l-1.321,1.173V16.443l0-15.045L52.8,2.571a.953.953,0,0,0,1.268,0l1.8-1.612,1.8,1.611a.954.954,0,0,0,1.273,0l1.8-1.611,1.8,1.612a.948.948,0,0,0,1.264,0L65.135,1.4V13.489l0,5.5Z" transform="translate(-50.529)" fill="#303030" stroke="#303030" stroke-width="0.3"/></g></g><g transform="translate(53.307 9.715)"><path d="M118.263,203.527h-9.05a.477.477,0,1,0,0,.955h9.05a.477.477,0,1,0,0-.955Z" transform="translate(-108.736 -203.527)" fill="#303030" stroke="#303030" stroke-width="0.3"/></g><g transform="translate(53.307 6.851)"><g transform="translate(0)"><path d="M113.967,143.527h-4.754a.477.477,0,0,0,0,.955h4.754a.477.477,0,1,0,0-.955Z" transform="translate(-108.736 -143.527)" fill="#f77c25" stroke="#f77c25" stroke-width="0.3"/></g></g><g transform="translate(53.307 12.579)"><path d="M118.263,263.527h-9.05a.477.477,0,1,0,0,.955h9.05a.477.477,0,1,0,0-.955Z" transform="translate(-108.736 -263.527)" fill="#f77c25" stroke="#f77c25" stroke-width="0.3"/></g></g></g></svg>