<svg xmlns="http://www.w3.org/2000/svg" width="38" height="38" viewBox="0 0 38 38"><g transform="translate(-3008 -850)"><g transform="translate(-170 -3)"><g transform="translate(235 -370)"><rect width="38" height="38" rx="19" transform="translate(2943 1223)" fill="none"/></g></g><g transform="translate(3015.884 849.921)"><g transform="translate(0 8.029)"><path d="M.7,17.22a1.3,1.3,0,0,0,1.35-.081L2.258,17v1.6a.334.334,0,0,0,.667,0V16.536l8.123-5.6a.606.606,0,0,1,.683,0l8.123,5.6v7.824a.334.334,0,0,0,.667,0V17l.209.144a1.308,1.308,0,0,0,1.484-2.154l-9.5-6.547a2.344,2.344,0,0,0-2.645,0l-9.5,6.547A1.308,1.308,0,0,0,.7,17.22Zm.245-1.685,9.5-6.547a1.673,1.673,0,0,1,1.888,0l9.5,6.547a.64.64,0,0,1-.066,1.095.631.631,0,0,1-.661-.04l-9-6.2a1.276,1.276,0,0,0-1.441,0l-9,6.2a.631.631,0,0,1-.661.04A.641.641,0,0,1,.944,15.535Z" transform="translate(0 -8.029)" fill="#242424" stroke="#242424" stroke-width="0.3"/><path d="M21.668,280.9H20.7V279.3a.334.334,0,1,0-.667,0V280.9H3.1v-7.376a.334.334,0,0,0-.667,0V280.9H1.463a1.279,1.279,0,0,0,0,2.558H21.668a1.279,1.279,0,0,0,0-2.558Zm0,1.891H1.463a.612.612,0,0,1,0-1.224H21.668a.612.612,0,0,1,0,1.224Z" transform="translate(-0.176 -261.396)" fill="#242424" stroke="#242424" stroke-width="0.3"/><path d="M128.542,147.941l0-1.3h0a.9.9,0,0,0-.85-.9,5.573,5.573,0,0,0-.478-1.143.911.911,0,0,0-.047-1.24l-.927-.92A.9.9,0,0,0,125,142.4a5.57,5.57,0,0,0-1.145-.47.905.905,0,0,0-.909-.844l-1.3,0a.9.9,0,0,0-.9.85,5.575,5.575,0,0,0-1.143.478.911.911,0,0,0-1.24.047l-.916.923a.908.908,0,0,0-.037,1.239,5.572,5.572,0,0,0-.47,1.146.9.9,0,0,0-.844.909l0,1.3a.9.9,0,0,0,.85.9,5.57,5.57,0,0,0,.478,1.142.9.9,0,0,0,.044,1.238l.921.915a.916.916,0,0,0,1.243.041,5.57,5.57,0,0,0,1.146.47.9.9,0,0,0,.905.844h0l1.3,0a.905.905,0,0,0,.9-.85,5.568,5.568,0,0,0,1.142-.478.907.907,0,0,0,1.239-.045l.919-.925a.905.905,0,0,0,.036-1.238,5.569,5.569,0,0,0,.47-1.146A.9.9,0,0,0,128.542,147.941Zm-.913.243a.587.587,0,0,0-.557.43,4.9,4.9,0,0,1-.454,1.108.586.586,0,0,0,.088.691l.012.013a.238.238,0,0,1,0,.337l-.919.925a.24.24,0,0,1-.338,0l0,0-.011-.011a.586.586,0,0,0-.691-.083,4.9,4.9,0,0,1-1.1.462.586.586,0,0,0-.426.557v.017a.237.237,0,0,1-.239.235l-1.3,0h0a.237.237,0,0,1-.24-.234.577.577,0,0,0-.43-.57,4.9,4.9,0,0,1-1.108-.454.586.586,0,0,0-.691.087l-.01.01a.246.246,0,0,1-.345,0l-.921-.915a.238.238,0,0,1,0-.335l0,0,.011-.011a.586.586,0,0,0,.083-.691,4.9,4.9,0,0,1-.462-1.1.576.576,0,0,0-.535-.425.253.253,0,0,1-.2-.067.241.241,0,0,1-.072-.172l0-1.3a.237.237,0,0,1,.231-.24h.015a.587.587,0,0,0,.558-.43,4.9,4.9,0,0,1,.454-1.108.586.586,0,0,0-.087-.691l-.013-.013a.24.24,0,0,1,0-.339l.916-.923a.241.241,0,0,1,.34,0l0,0h0a.594.594,0,0,0,.708.089,4.9,4.9,0,0,1,1.1-.458.587.587,0,0,0,.426-.559v-.014a.237.237,0,0,1,.239-.235l1.3,0h0a.237.237,0,0,1,.24.232.577.577,0,0,0,.43.571,4.9,4.9,0,0,1,1.108.455.587.587,0,0,0,.692-.088l.014-.014a.234.234,0,0,1,.333,0l.927.92a.242.242,0,0,1,0,.341l-.012.012a.586.586,0,0,0-.083.692,4.9,4.9,0,0,1,.462,1.1.577.577,0,0,0,.575.426.237.237,0,0,1,.233.239h0l0,1.3A.24.24,0,0,1,127.629,148.184Z" transform="translate(-110.928 -135.167)" fill="#242424" stroke="#242424" stroke-width="0.3"/><path d="M171.855,192.93a3.918,3.918,0,1,0,3.918,3.918A3.923,3.923,0,0,0,171.855,192.93Zm.53,7.125a3.221,3.221,0,0,1-1.06,0v-.292a2.623,2.623,0,0,0-.677-1.757L170.64,198a1.63,1.63,0,0,1,.166-2.332v1.145a.778.778,0,0,0,.777.777h.545a.778.778,0,0,0,.777-.777v-1.145A1.63,1.63,0,0,1,173.07,198l-.012.013a2.608,2.608,0,0,0-.673,1.753Zm.667-.186v-.106a1.942,1.942,0,0,1,.5-1.305l.014-.016a2.3,2.3,0,0,0-.478-3.467.555.555,0,0,0-.853.468v1.367a.11.11,0,0,1-.11.11h-.545a.11.11,0,0,1-.11-.11v-1.367a.555.555,0,0,0-.853-.468,2.3,2.3,0,0,0-.478,3.467l.006.007,0,0a1.958,1.958,0,0,1,.506,1.311v.106a3.251,3.251,0,1,1,2.395,0Z" transform="translate(-160.465 -184.703)" fill="#f77c25" stroke="#f77c25" stroke-width="0.3"/></g></g></g></svg>