<svg xmlns="http://www.w3.org/2000/svg" width="32" height="32" viewBox="0 0 32 32"><g transform="translate(-7126 368)"><g transform="translate(47 -583)"><rect width="32" height="32" transform="translate(7079 215)" fill="none"/><g transform="translate(7083 218.997)"><circle cx="0.5" cy="0.5" r="0.5" transform="translate(5.001 4.003)" fill="#303030"/><path d="M20.64,10.966a1.827,1.827,0,0,0,1.116.376,1.844,1.844,0,0,0,1.118-3.31l-2.316-1.78V.464A.461.461,0,0,0,20.1,0H17.332a.461.461,0,0,0-.461.461V3.418L12.917.379a1.844,1.844,0,0,0-2.234,0l-3.51,2.7a.461.461,0,1,0,.562.731l3.508-2.7a.922.922,0,0,1,1.114,0l9.958,7.653A.922.922,0,0,1,21.2,10.234L12.082,3.22a.461.461,0,0,0-.546-.012c-.021.015-9.133,7.024-9.134,7.024a.922.922,0,0,1-.651.183.808.808,0,0,1-.8-.7.929.929,0,0,1,.341-.956L4.447,6.336A.461.461,0,1,0,3.885,5.6L.728,8.031A1.84,1.84,0,0,0,.048,9.923a1.719,1.719,0,0,0,1.613,1.41,1.84,1.84,0,0,0,1.3-.367h0l.083-.062v6.324a2.756,2.756,0,0,0-2.065,2.2A2.3,2.3,0,0,0,2.305,23.6H21.3a2.3,2.3,0,0,0,1.327-4.179,2.756,2.756,0,0,0-2.065-2.2V10.9ZM17.793.925h1.844V5.543L17.793,4.126ZM7.376,22.681H2.305A1.377,1.377,0,0,1,1.632,20.1a.461.461,0,0,0,.232-.358,1.832,1.832,0,0,1,3.326-.888.461.461,0,0,0,.483.182,1.366,1.366,0,0,1,1.7,1.325.465.465,0,0,0,.3.534.918.918,0,0,1-.3,1.787Zm7.938-2.519a1.831,1.831,0,0,0-.683.675H8.971a1.831,1.831,0,0,0-.683-.675,2.338,2.338,0,0,0-.037-.247h7.1A2.348,2.348,0,0,0,15.314,20.162ZM8.972,22.681a1.833,1.833,0,0,0,.247-.922h5.162a1.833,1.833,0,0,0,.247.922Zm12.765-2.939a.461.461,0,0,0,.232.358,1.377,1.377,0,0,1-.674,2.581h-5.07a.918.918,0,0,1-.3-1.787.465.465,0,0,0,.3-.534,1.366,1.366,0,0,1,1.7-1.325.461.461,0,0,0,.483-.182,1.832,1.832,0,0,1,3.326.888Zm-2.1-2.578a2.772,2.772,0,0,0-1.791.921,2.075,2.075,0,0,0-.237-.014,2.313,2.313,0,0,0-1.843.922H7.836a2.313,2.313,0,0,0-1.843-.922,2.074,2.074,0,0,0-.237.014,2.772,2.772,0,0,0-1.791-.921V10.194L11.8,4.167l7.836,6.027Z" fill="#303030" stroke="#303030" stroke-width="0.3"/><path d="M7.638,13.416s3.5,3,8.4,0" fill="none" stroke="#f77c25" stroke-linecap="round" stroke-width="1.5"/></g></g></g></svg>