<svg xmlns="http://www.w3.org/2000/svg" width="22" height="22" viewBox="0 0 22 22"><g transform="translate(-3782 -770)"><rect width="22" height="22" transform="translate(3782 770)" fill="none"/><g transform="translate(3783.169 771.169)"><path d="M136.41,419.693a3.082,3.082,0,0,1-3.078-3.078.616.616,0,1,1,1.231,0,1.847,1.847,0,0,0,3.693,0,.616.616,0,1,1,1.231,0A3.082,3.082,0,0,1,136.41,419.693Zm0,0" transform="translate(-128.202 -400.031)" fill="#303030"/><path d="M14.979,82.474H1.436A1.437,1.437,0,0,1,.5,79.946.568.568,0,0,1,.568,79.9a5.516,5.516,0,0,0,1.894-4.161v-2.29a5.709,5.709,0,0,1,4.4-5.581.616.616,0,0,1,.284,1.2,4.481,4.481,0,0,0-3.458,4.383v2.29a6.75,6.75,0,0,1-2.383,5.147c-.012.01-.023.019-.036.028a.2.2,0,0,0-.043.127.207.207,0,0,0,.205.205H14.979a.207.207,0,0,0,.205-.205.2.2,0,0,0-.044-.127l-.035-.028a6.694,6.694,0,0,1-1.724-2.25.615.615,0,1,1,1.112-.526A5.486,5.486,0,0,0,15.849,79.9a.709.709,0,0,1,.062.047,1.436,1.436,0,0,1-.932,2.528Zm0,0" transform="translate(0 -65.274)" fill="#303030"/><path d="M239.586,9.835A4.918,4.918,0,1,1,244.5,4.918,4.923,4.923,0,0,1,239.586,9.835Z" transform="translate(-225.222 0.381)" fill="#f77c25"/></g></g></svg>