<svg xmlns="http://www.w3.org/2000/svg" width="32" height="32" viewBox="0 0 32 32"><g transform="translate(-7126 306)"><g transform="translate(40 -577)"><rect width="32" height="32" transform="translate(7086 271)" fill="none"/><g transform="translate(7090 276)"><g transform="translate(0 7.367)"><path d="M13.628,165.525h-.405a.362.362,0,0,1-.341-.238c-.045-.118-.093-.233-.145-.347a.363.363,0,0,1,.074-.411l.289-.289a1.108,1.108,0,0,0,0-1.561l-1.041-1.041a1.108,1.108,0,0,0-1.562,0l-.289.288A.365.365,0,0,1,9.8,162c-.114-.052-.229-.1-.348-.147a.362.362,0,0,1-.239-.342v-.405A1.1,1.1,0,0,0,8.1,160H6.63a1.1,1.1,0,0,0-1.105,1.105v.405a.362.362,0,0,1-.238.341c-.118.045-.233.093-.347.145a.364.364,0,0,1-.411-.074l-.289-.289a1.108,1.108,0,0,0-1.561,0l-1.041,1.044a1.108,1.108,0,0,0,0,1.562l.288.289A.363.363,0,0,1,2,164.94c-.052.114-.1.229-.145.348a.362.362,0,0,1-.344.238H1.105A1.1,1.1,0,0,0,0,166.63V168.1a1.1,1.1,0,0,0,1.105,1.1H1.51a.362.362,0,0,1,.341.238c.045.118.093.233.145.347a.363.363,0,0,1-.074.411l-.289.289a1.108,1.108,0,0,0,0,1.561L2.675,173.1a1.108,1.108,0,0,0,1.562,0l.289-.288a.365.365,0,0,1,.411-.074c.114.052.229.1.348.147a.362.362,0,0,1,.241.342v.405a1.1,1.1,0,0,0,1.105,1.1H8.1a1.1,1.1,0,0,0,1.105-1.1v-.405a.362.362,0,0,1,.238-.341c.118-.045.233-.093.347-.145a.364.364,0,0,1,.411.074l.289.289a1.108,1.108,0,0,0,1.561,0l1.041-1.041a1.108,1.108,0,0,0,0-1.562l-.288-.289a.363.363,0,0,1-.074-.411c.052-.114.1-.229.147-.348a.362.362,0,0,1,.342-.239h.405a1.1,1.1,0,0,0,1.105-1.1V166.63A1.1,1.1,0,0,0,13.628,165.525ZM14,168.1a.368.368,0,0,1-.368.368h-.405a1.109,1.109,0,0,0-1.031.712q-.059.155-.127.3a1.108,1.108,0,0,0,.221,1.236l.288.288a.368.368,0,0,1,0,.521h0l-1.041,1.041a.368.368,0,0,1-.521,0l-.289-.288a1.107,1.107,0,0,0-1.236-.221c-.1.045-.2.088-.3.127a1.108,1.108,0,0,0-.712,1.031v.405A.368.368,0,0,1,8.1,174H6.63a.368.368,0,0,1-.368-.368v-.405a1.109,1.109,0,0,0-.712-1.031q-.155-.059-.3-.127a1.109,1.109,0,0,0-1.236.221l-.288.288a.368.368,0,0,1-.521,0h0l-1.041-1.04a.368.368,0,0,1,0-.521l.288-.289a1.108,1.108,0,0,0,.221-1.236c-.045-.1-.088-.2-.127-.3a1.108,1.108,0,0,0-1.031-.713H1.105a.368.368,0,0,1-.368-.368V166.63a.368.368,0,0,1,.368-.368H1.51a1.109,1.109,0,0,0,1.031-.712q.059-.155.127-.3a1.108,1.108,0,0,0-.221-1.236l-.29-.288a.368.368,0,0,1,0-.521h0L3.2,162.158a.368.368,0,0,1,.521,0l.289.288a1.107,1.107,0,0,0,1.236.221c.1-.045.2-.088.3-.127a1.108,1.108,0,0,0,.713-1.031v-.405a.368.368,0,0,1,.368-.368H8.1a.368.368,0,0,1,.368.368v.405a1.109,1.109,0,0,0,.712,1.031q.155.059.3.127a1.107,1.107,0,0,0,1.236-.221l.288-.288a.371.371,0,0,1,.521,0l1.041,1.041a.368.368,0,0,1,0,.521l-.288.289a1.108,1.108,0,0,0-.221,1.236c.045.1.088.2.127.3a1.108,1.108,0,0,0,1.031.712h.405a.368.368,0,0,1,.368.368V168.1Z" transform="translate(0 -160)" fill="#303030" stroke="#303030" stroke-width="0.4"/></g><g transform="translate(4.05 11.418)"><path d="M94.583,251.168c0-.088-.01-.176-.021-.264s-.026-.188-.045-.28c-.013-.06-.03-.119-.046-.179q-.031-.114-.07-.224c-.018-.051-.037-.1-.056-.152a3.283,3.283,0,0,0-.162-.345c0-.008-.008-.018-.013-.026a3.268,3.268,0,0,0-.331-.483c-.011-.013-.023-.026-.034-.039-.051-.06-.1-.118-.158-.174-.029-.03-.059-.058-.089-.087s-.074-.068-.111-.1-.09-.076-.137-.113l-.06-.045A3.292,3.292,0,0,0,91.275,248c-.037,0-.074.006-.111.007-.078,0-.157.007-.236.015l-.125.015a3.373,3.373,0,0,0-.357.067,3.317,3.317,0,0,0,0,6.423.085.085,0,0,1,.018,0,3.5,3.5,0,0,0,.386.074c.086.011.172.013.258.017.057,0,.11.011.171.011.1,0,.214-.007.325-.018a.364.364,0,0,0,.037,0c.09-.01.18-.023.273-.042.037-.007.071-.016.106-.024.065-.015.129-.031.2-.05s.1-.034.152-.051l.155-.057c.052-.02.1-.043.144-.065s.123-.056.184-.09h0a4.36,4.36,0,0,0,.944-.682,1.16,1.16,0,0,0,.2-.242,3.932,3.932,0,0,0,.555-1.514c.01-.071.02-.142.025-.215s.009-.133.01-.2c0-.021,0-.041,0-.062C94.59,251.266,94.585,251.218,94.583,251.168Zm-.734.241c0,.031,0,.061,0,.091-.007.089-.018.178-.033.268a2.584,2.584,0,0,1-1.294,1.8c-.046.024-.091.046-.136.067l-.031.015a2.66,2.66,0,0,1-.672.2l-.049.008c-.046.007-.091.012-.136.016s-.119.008-.18.009h-.077a2.585,2.585,0,0,1-.261-.016l-.044-.005a2.73,2.73,0,0,1-.3-.057,2.578,2.578,0,0,1,0-4.995h0a2.667,2.667,0,0,1,.647-.081,2.54,2.54,0,0,1,.315.021l.083.013c.08.013.158.028.236.048l.076.02a2.6,2.6,0,0,1,.562.236l.084.051c.058.037.115.074.17.116.03.022.06.043.089.066a2.657,2.657,0,0,1,.207.184c.026.027.05.056.076.083.042.046.084.093.123.143.027.034.053.07.079.105.037.053.074.108.107.164l.056.092a2.525,2.525,0,0,1,.127.27c.015.037.027.074.041.111.024.068.045.136.063.206.009.037.02.07.027.105a2.6,2.6,0,0,1,.047.3c0,.027,0,.054,0,.081C93.851,251.238,93.852,251.323,93.849,251.409Z" transform="translate(-87.959 -248)" fill="#f77c25" stroke="#f77c25" stroke-width="0.3"/></g><g transform="translate(4.018)"><path d="M104.239,7.735H103.08a.36.36,0,0,1-.343-.242,7.67,7.67,0,0,0-.414-1,.361.361,0,0,1,.071-.416l.821-.822a1.1,1.1,0,0,0,0-1.562l-1.566-1.564a1.1,1.1,0,0,0-1.562,0l-.821.821a.361.361,0,0,1-.415.071,7.652,7.652,0,0,0-1-.416.359.359,0,0,1-.243-.343V1.105A1.1,1.1,0,0,0,96.5,0h-2.21a1.1,1.1,0,0,0-1.105,1.105V2.263a.359.359,0,0,1-.242.343,7.676,7.676,0,0,0-1,.415.36.36,0,0,1-.416-.071L90.71,2.13a1.107,1.107,0,0,0-1.562,0L87.585,3.693a1.105,1.105,0,0,0,0,1.562l1.208,1.21a.368.368,0,0,0,.522-.52l-1.209-1.21a.368.368,0,0,1,0-.521l1.563-1.563a.368.368,0,0,1,.521,0l.823.821a1.1,1.1,0,0,0,1.266.208,6.969,6.969,0,0,1,.9-.375,1.1,1.1,0,0,0,.744-1.042V1.105a.368.368,0,0,1,.368-.368H96.5a.368.368,0,0,1,.368.368V2.263a1.1,1.1,0,0,0,.744,1.042,6.947,6.947,0,0,1,.9.376,1.1,1.1,0,0,0,1.265-.208l.823-.821a.368.368,0,0,1,.521,0l1.563,1.564a.368.368,0,0,1,0,.52l-.821.823a1.1,1.1,0,0,0-.208,1.266,6.97,6.97,0,0,1,.375.9,1.1,1.1,0,0,0,1.042.744h1.158a.368.368,0,0,1,.368.368v2.21a.368.368,0,0,1-.368.368H103.08a1.1,1.1,0,0,0-1.042.744,6.94,6.94,0,0,1-.376.9,1.1,1.1,0,0,0,.208,1.265l.821.823a.368.368,0,0,1,0,.521l-1.564,1.563a.368.368,0,0,1-.52,0L99.4,16.03a.368.368,0,1,0-.529.513l.009.009,1.21,1.208a1.1,1.1,0,0,0,1.562,0l1.563-1.563a1.105,1.105,0,0,0,0-1.562l-.82-.822a.361.361,0,0,1-.071-.415,7.653,7.653,0,0,0,.416-1,.359.359,0,0,1,.343-.243h1.158a1.1,1.1,0,0,0,1.105-1.105V8.84A1.1,1.1,0,0,0,104.239,7.735Z" transform="translate(-87.261)" fill="#303030" stroke="#303030" stroke-width="0.4"/></g><g transform="translate(8.666 5.159)"><path d="M195.094,113.45a4.793,4.793,0,0,0-6.771,0,.368.368,0,0,0,.521.521,4.052,4.052,0,0,1,5.768,5.691l-.038.038a.368.368,0,1,0,.512.53l.009-.009A4.793,4.793,0,0,0,195.094,113.45Z" transform="translate(-188.219 -112.049)" fill="#f77c25" stroke="#f77c25" stroke-width="0.3"/></g></g></g></g></svg>