<svg xmlns="http://www.w3.org/2000/svg" width="22" height="22" viewBox="0 0 22 22"><g transform="translate(-3794 -764)"><rect width="22" height="22" transform="translate(3794 764)" fill="none"/><g transform="translate(3797.75 765.7)"><path d="M91.377,8.69a4.2,4.2,0,0,0,3.072-1.273,4.2,4.2,0,0,0,1.273-3.072,4.2,4.2,0,0,0-1.273-3.072,4.344,4.344,0,0,0-6.144,0,4.2,4.2,0,0,0-1.273,3.072A4.2,4.2,0,0,0,88.3,7.417,4.206,4.206,0,0,0,91.377,8.69Zm-2.325-6.67a3.287,3.287,0,0,1,4.649,0,3.141,3.141,0,0,1,.963,2.325A3.141,3.141,0,0,1,93.7,6.67a3.286,3.286,0,0,1-4.649,0,3.141,3.141,0,0,1-.963-2.325,3.141,3.141,0,0,1,.963-2.325Zm0,0" transform="translate(-83.965)" fill="#303030" stroke="#303030" stroke-width="0.15"/><path d="M15.014,252.474a10.731,10.731,0,0,0-.146-1.14,8.982,8.982,0,0,0-.28-1.146,5.661,5.661,0,0,0-.471-1.069,4.03,4.03,0,0,0-.71-.926,3.132,3.132,0,0,0-1.021-.641,3.527,3.527,0,0,0-1.3-.236,1.323,1.323,0,0,0-.706.3c-.212.138-.459.3-.736.474a4.215,4.215,0,0,1-.952.419,3.7,3.7,0,0,1-2.328,0,4.2,4.2,0,0,1-.951-.419c-.274-.175-.521-.335-.736-.475a1.321,1.321,0,0,0-.706-.3,3.522,3.522,0,0,0-1.3.236,3.13,3.13,0,0,0-1.021.641,4.03,4.03,0,0,0-.71.926,5.671,5.671,0,0,0-.471,1.069,9,9,0,0,0-.28,1.146,10.658,10.658,0,0,0-.146,1.14c-.024.345-.036.7-.036,1.065a3,3,0,0,0,.89,2.266,3.2,3.2,0,0,0,2.293.836h8.686a3.2,3.2,0,0,0,2.292-.836,2.994,2.994,0,0,0,.89-2.266c0-.363-.012-.722-.036-1.066Zm-1.582,2.566a2.156,2.156,0,0,1-1.564.545H3.182a2.156,2.156,0,0,1-1.564-.545,1.956,1.956,0,0,1-.561-1.5c0-.338.011-.672.033-.992a9.614,9.614,0,0,1,.132-1.027,7.939,7.939,0,0,1,.247-1.01,4.617,4.617,0,0,1,.383-.869,2.986,2.986,0,0,1,.522-.684,2.078,2.078,0,0,1,.679-.422,2.433,2.433,0,0,1,.833-.161c.037.02.1.057.21.127.217.142.468.3.745.48a5.236,5.236,0,0,0,1.195.534,4.752,4.752,0,0,0,2.979,0,5.243,5.243,0,0,0,1.2-.534c.283-.181.527-.338.744-.48.107-.069.173-.107.21-.127a2.436,2.436,0,0,1,.833.161,2.081,2.081,0,0,1,.679.422,2.979,2.979,0,0,1,.522.684,4.6,4.6,0,0,1,.384.869,7.922,7.922,0,0,1,.247,1.01,9.7,9.7,0,0,1,.132,1.027h0c.022.319.034.653.034.992a1.956,1.956,0,0,1-.562,1.5Zm0,0" transform="translate(0 -238.602)" fill="#303030" stroke="#303030" stroke-width="0.15"/></g></g></svg>