<svg xmlns="http://www.w3.org/2000/svg" width="31" height="31" viewBox="0 0 31 31"><g transform="translate(-7835 -786)"><g transform="translate(-85 -10)"><g transform="translate(-53 -3)"><rect width="31" height="31" rx="15.5" transform="translate(7973 799)" fill="none"/><g transform="translate(0 0)"><g transform="translate(5295.611 176.607)"><path d="M2700.41,631.393h-14.3a.72.72,0,0,0-.72.72v9.118a.72.72,0,0,0,.72.72h1.762v3.078l3.049-3.078h9.49a.72.72,0,0,0,.72-.72v-9.118A.72.72,0,0,0,2700.41,631.393Z" fill="none" stroke="#222" stroke-miterlimit="10" stroke-width="1"/><line x2="10.958" transform="translate(2687.641 634.847)" fill="none" stroke="#222" stroke-linecap="round" stroke-miterlimit="10" stroke-width="1"/><line x2="7.248" transform="translate(2687.641 637.953)" fill="none" stroke="#f77c25" stroke-linecap="round" stroke-miterlimit="10" stroke-width="1"/><line x2="1.71" transform="translate(2696.889 637.953)" fill="none" stroke="#f77c25" stroke-linecap="round" stroke-miterlimit="10" stroke-width="1"/></g></g></g></g><rect width="4" height="1.3" transform="translate(7841 803)" fill="#fff"/></g></svg>