<svg xmlns="http://www.w3.org/2000/svg" width="22" height="22" viewBox="0 0 22 22"><g transform="translate(-3744 -777)"><rect width="22" height="22" transform="translate(3744 777)" fill="none"/><g transform="translate(3746.422 777.732)"><g transform="translate(2.946 17.602)"><rect width="11.273" height="1.281" fill="#303030"/></g><g transform="translate(6.021 7.289)"><path d="M181.531,169.726h-3.95a.641.641,0,0,0,0,1.281h3.95a.641.641,0,1,0,0-1.281Z" transform="translate(-176.941 -169.726)" fill="#303030"/></g><g transform="translate(6.021 10.278)"><path d="M184.52,257.569h-6.939a.641.641,0,0,0,0,1.281h6.939a.641.641,0,0,0,0-1.281Z" transform="translate(-176.941 -257.569)" fill="#303030"/></g><g transform="translate(0 1.568)"><g transform="translate(0 0)"><path d="M17.044,1.646a.641.641,0,0,0-.687.1L14.563,3.336l-1.8-1.606a.64.64,0,0,0-.854,0l-1.793,1.6-1.794-1.6a.64.64,0,0,0-.854,0l-1.8,1.606L3.883,1.75a.641.641,0,0,0-1.065.48v11.4H.641a.64.64,0,0,0-.641.64V15.83a3.057,3.057,0,0,0,3.053,3.053V17.6A1.774,1.774,0,0,1,1.281,15.83v-.918H11.316v.918a3.053,3.053,0,1,0,6.106,0V2.229A.64.64,0,0,0,17.044,1.646Zm-.9,14.184a1.772,1.772,0,0,1-3.544,0V14.271a.64.64,0,0,0-.641-.641H4.1V3.651L5.255,4.674a.64.64,0,0,0,.851,0L7.9,3.067l1.793,1.6a.64.64,0,0,0,.854,0l1.794-1.6,1.793,1.6a.641.641,0,0,0,.851,0l1.155-1.022Z" transform="translate(0 -1.567)" fill="#303030"/></g></g></g></g></svg>