<svg xmlns="http://www.w3.org/2000/svg" width="31" height="31" viewBox="0 0 31 31"><g transform="translate(-7907 -786)"><rect width="31" height="31" rx="15.5" transform="translate(7907 786)" fill="none"/><g transform="translate(7915.081 794.081)"><path d="M13.589,2.25A7.63,7.63,0,0,0,8.158,0h0A7.682,7.682,0,0,0,1.332,11.2L.04,14.891a.712.712,0,0,0,.669.947A.717.717,0,0,0,.947,15.8l3.688-1.291A7.681,7.681,0,0,0,13.589,2.25Zm-.657,10.205a6.754,6.754,0,0,1-7.944,1.188.715.715,0,0,0-.571-.044L1.067,14.772l1.173-3.351A.716.716,0,0,0,2.2,10.85,6.752,6.752,0,0,1,8.157.929h0a6.752,6.752,0,0,1,4.774,11.526Zm0,0" transform="translate(0)" fill="#212121"/><path d="M134.42,118.632a.907.907,0,0,0-1.282,0l-.386.386a5.625,5.625,0,0,1-2.259-2.259l.386-.386a.907.907,0,0,0,0-1.282l-1.041-1.041a.907.907,0,0,0-1.282,0l-.833.833c-.477.477-.5,1.3-.067,2.31a10.139,10.139,0,0,0,4.662,4.662,3.363,3.363,0,0,0,1.3.309,1.381,1.381,0,0,0,1.013-.376l.833-.833h0a.906.906,0,0,0,0-1.282Zm-.449,2.5c-.136.136-.555.184-1.287-.13a9.235,9.235,0,0,1-4.174-4.174c-.314-.732-.266-1.151-.13-1.287l.817-.817,1.009,1.009-.484.484a.709.709,0,0,0-.131.825,6.553,6.553,0,0,0,2.878,2.878.709.709,0,0,0,.826-.131l.484-.484,1.009,1.009Zm0,0" transform="translate(-123.408 -110.265)" fill="#f77c25"/></g><path d="M7927.344,807.125l2.525,2.525,1.05-1.55-2.575-2.35Z" fill="#fff"/></g></svg>