<svg xmlns="http://www.w3.org/2000/svg" width="38" height="38" viewBox="0 0 38 38"><g transform="translate(-6330 -842)"><g transform="translate(6224 874)"><rect width="38" height="38" rx="19" transform="translate(106 -32)" fill="none" opacity="0"/></g><g transform="translate(0.225 0.225)"><g transform="translate(6339 851)"><path d="M820.777,1485.331H822.3l5.146-2.969a1.135,1.135,0,0,1,.867-.114h0a1.134,1.134,0,0,1,.7.532l1.477,2.557.908.05-1.729-2.988a1.908,1.908,0,0,0-2.193-.873l-.725.361Z" transform="translate(-815.114 -1479.703)" fill="#f26314" stroke="#f26314" stroke-width="0.25"/><g transform="translate(0)"><path d="M892.949,1572.548a.381.381,0,1,0,.27.111A.381.381,0,0,0,892.949,1572.548Z" transform="translate(-878.58 -1560.24)" fill="#f26314" stroke="#f26314" stroke-width="0.25"/><g transform="translate(0 0)"><path d="M811.042,1477.863l5.973-3.446-.066.009.049-.025-1.066-1.068a1.143,1.143,0,0,0-1.617,0l-4.551,4.552H811l-.062-.022Z" transform="translate(-805.379 -1472.234)" fill="none"/><path d="M842.119,1491.147l-1.477-2.557a1.134,1.134,0,0,0-.7-.533h0a1.135,1.135,0,0,0-.867.115l-5.146,2.969h.195l-.1.021H842.1l-.025-.019Z" transform="translate(-826.744 -1485.514)" fill="none"/><path d="M890.493,1563.919H886.52a1.3,1.3,0,1,0,0,2.592h3.97a.382.382,0,0,0,.382-.382V1564.3A.382.382,0,0,0,890.493,1563.919Z" transform="translate(-872.088 -1552.612)" fill="none"/><path d="M790.345,1476.951h-.382v-2.673a2.218,2.218,0,0,0-1.727-2.16c-.123-.03-.91-.055-.91-.055l-.022,0,0,0H776.327l4.55-4.553a1.143,1.143,0,0,1,1.617,0l1.066,1.068.716-.369-1.242-1.239a1.909,1.909,0,0,0-2.7,0l-5.092,5.093h-1.09a2.217,2.217,0,0,0-2.215,2.214v.986h.764v-.986a1.453,1.453,0,0,1,1.451-1.451h13.593a1.453,1.453,0,0,1,1.451,1.451v2.672h-2.826a2.062,2.062,0,0,0,0,4.124H789.2v2.673a1.452,1.452,0,0,1-1.451,1.451H774.156a1.452,1.452,0,0,1-1.451-1.451v-6.877h-.764v6.877a2.217,2.217,0,0,0,2.215,2.215h13.593a2.217,2.217,0,0,0,2.215-2.215v-2.673h.382a1.146,1.146,0,0,0,1.145-1.145V1478.1A1.146,1.146,0,0,0,790.345,1476.951Zm.381,2.979a.382.382,0,0,1-.382.382h-3.97a1.3,1.3,0,1,1,0-2.592h3.973a.382.382,0,0,1,.382.382Z" transform="translate(-771.941 -1466.413)" fill="#2e2e2e" stroke="#2e2e2e" stroke-width="0.5"/></g></g></g><path d="M6341.281,864.75v4.01" transform="translate(-0.103 -0.621)" fill="none" stroke="#f77c25" stroke-linecap="round" stroke-width="1"/></g></g></svg>