<svg viewBox="0 0 423.77 144.23" xmlns="http://www.w3.org/2000/svg"><path d="m149.13 60.13a16.47 16.47 0 0 1 -6.86-5.46 13.9 13.9 0 0 1 -2.56-8.06h7.78a10.2 10.2 0 0 0 3.24 6.62q2.85 2.69 8.3 2.69 5.22 0 8.22-2.61a8.45 8.45 0 0 0 3-6.7 7.64 7.64 0 0 0 -1.76-5.21 11.46 11.46 0 0 0 -4.41-3 70.74 70.74 0 0 0 -7.08-2.29 62.36 62.36 0 0 1 -8.86-2.89 14.26 14.26 0 0 1 -5.7-4.53 13.37 13.37 0 0 1 -2.36-8.3 14.37 14.37 0 0 1 2.32-8.1 15.13 15.13 0 0 1 6.54-5.45 22.92 22.92 0 0 1 9.66-1.93q7.86 0 12.87 3.93a14.51 14.51 0 0 1 5.66 10.43h-8a8.67 8.67 0 0 0 -3.37-5.66 12 12 0 0 0 -7.86-2.44 11.43 11.43 0 0 0 -7.46 2.36 8.1 8.1 0 0 0 -2.88 6.62 7.16 7.16 0 0 0 1.72 5 11.21 11.21 0 0 0 4.25 2.93 73.54 73.54 0 0 0 7.1 2.28 67.23 67.23 0 0 1 8.9 3 14.93 14.93 0 0 1 5.77 4.57q2.42 3.09 2.41 8.38a14.64 14.64 0 0 1 -2.17 7.7 15.9 15.9 0 0 1 -6.41 5.86 21.29 21.29 0 0 1 -10 2.24 23.87 23.87 0 0 1 -10-1.98z" fill="#333"/><path d="m252 18.91a15.27 15.27 0 0 1 6.34 6.37 21.31 21.31 0 0 1 2.32 10.35v25.9h-7.21v-24.86q0-6.57-3.25-10.07a11.43 11.43 0 0 0 -8.78-3.48 11.75 11.75 0 0 0 -9.07 3.64q-3.35 3.66-3.35 10.55v24.22h-7.22v-24.86q0-6.57-3.25-10.07a11.43 11.43 0 0 0 -8.78-3.48 11.72 11.72 0 0 0 -9.06 3.64q-3.37 3.66-3.37 10.55v24.22h-7.32v-43.95h7.3v6.34a14.49 14.49 0 0 1 5.81-5.3 17.72 17.72 0 0 1 8.06-1.84 19 19 0 0 1 9.83 2.49 15.16 15.16 0 0 1 6.33 7.29 14.38 14.38 0 0 1 6.1-7.21 17.93 17.93 0 0 1 9.46-2.57 19.17 19.17 0 0 1 9.11 2.13z" fill="#333"/><path d="m274.2 27.57a19.77 19.77 0 0 1 7.5-7.9 20.56 20.56 0 0 1 10.62-2.81 19.51 19.51 0 0 1 10 2.49 16.53 16.53 0 0 1 6.33 6.25v-8h7.38v44h-7.38v-8.25a17.18 17.18 0 0 1 -6.45 6.38 19.36 19.36 0 0 1 -10 2.52 19.93 19.93 0 0 1 -10.58-2.88 20.3 20.3 0 0 1 -7.46-8.1 25.24 25.24 0 0 1 -2.73-11.87 24.65 24.65 0 0 1 2.77-11.83zm32.48 3.25a14.2 14.2 0 0 0 -5.41-5.66 15.39 15.39 0 0 0 -15 0 13.88 13.88 0 0 0 -5.37 5.62 17.79 17.79 0 0 0 -2 8.66 18.27 18.27 0 0 0 2 8.78 14.13 14.13 0 0 0 5.37 5.69 14.52 14.52 0 0 0 7.46 2 14.79 14.79 0 0 0 7.5-2 14.15 14.15 0 0 0 5.41-5.69 18.2 18.2 0 0 0 2-8.7 17.92 17.92 0 0 0 -1.96-8.7z" fill="#333"/><path d="m342.81 18.86a17.08 17.08 0 0 1 8.7-2.08v7.54h-1.93q-12.27 0-12.27 13.31v23.9h-7.31v-43.95h7.29v7.14a14.14 14.14 0 0 1 5.52-5.86z" fill="#333"/><path d="m370.44 23.6v25.9c0 2.14.45 3.65 1.36 4.53s2.48 1.33 4.73 1.33h5.37v6.17h-6.57c-4.07 0-7.11-.93-9.14-2.81s-3.05-4.94-3.05-9.22v-25.9h-5.7v-6h5.7v-11.09h7.3v11.07h11.46v6z" fill="#333"/><g fill="#f77c25"><path d="m203.86 86.05v56.3h-13.71v-33.77l-12.59 33.77h-11.07l-12.67-33.85v33.85h-13.71v-56.3h16.2l15.8 39 15.63-39z"/><path d="m257.28 123.26h-31a9.28 9.28 0 0 0 2.69 6.37 8.15 8.15 0 0 0 5.81 2.21q5.13 0 7.14-4.33h14.6a20.06 20.06 0 0 1 -4.05 7.94 20.31 20.31 0 0 1 -7.34 5.53 23.53 23.53 0 0 1 -9.87 2 24 24 0 0 1 -11.71-2.81 20 20 0 0 1 -8-8 24.8 24.8 0 0 1 -2.94-12.17 25.15 25.15 0 0 1 2.84-12.19 19.75 19.75 0 0 1 8-8 24.18 24.18 0 0 1 11.77-2.81 23.92 23.92 0 0 1 11.55 2.73 19.59 19.59 0 0 1 7.9 7.78 23.6 23.6 0 0 1 2.85 11.79 35.14 35.14 0 0 1 -.24 3.96zm-13.8-7.62a7.05 7.05 0 0 0 -2.4-5.61 8.88 8.88 0 0 0 -6-2.09 8.65 8.65 0 0 0 -5.81 2 8.85 8.85 0 0 0 -2.93 5.69z"/><path d="m291.28 130.72v11.63h-7q-7.46 0-11.63-3.65t-4.17-11.91v-17.79h-5.45v-11.4h5.45v-10.91h13.72v10.91h9v11.4h-9v18a3.78 3.78 0 0 0 1 2.89 4.74 4.74 0 0 0 3.21.88z"/><path d="m342.45 123.26h-31a9.28 9.28 0 0 0 2.69 6.37 8.15 8.15 0 0 0 5.81 2.21q5.13 0 7.14-4.33h14.6a20.06 20.06 0 0 1 -4 7.94 20.31 20.31 0 0 1 -7.34 5.53 23.53 23.53 0 0 1 -9.87 2 24 24 0 0 1 -11.71-2.81 20 20 0 0 1 -8-8 24.8 24.8 0 0 1 -2.99-12.17 25.15 25.15 0 0 1 2.84-12.19 19.75 19.75 0 0 1 8-8 24.18 24.18 0 0 1 11.77-2.81 23.92 23.92 0 0 1 11.55 2.73 19.59 19.59 0 0 1 7.9 7.78 23.6 23.6 0 0 1 2.85 11.79 35.14 35.14 0 0 1 -.24 3.96zm-13.8-7.62a7.05 7.05 0 0 0 -2.4-5.61 8.88 8.88 0 0 0 -6-2.09 8.65 8.65 0 0 0 -5.81 2 8.85 8.85 0 0 0 -2.93 5.69z"/><path d="m371.24 99.24a15.47 15.47 0 0 1 8-2.13v14.52h-3.77q-5.13 0-7.7 2.21t-2.57 7.73v20.78h-13.69v-44.75h13.71v7.45a18.23 18.23 0 0 1 6.02-5.81z"/><path d="m395.22 141a17.67 17.67 0 0 1 -7.22-5.49 14.46 14.46 0 0 1 -3-7.82h13.56a5.21 5.21 0 0 0 2.16 3.77 7.67 7.67 0 0 0 4.73 1.44 6.73 6.73 0 0 0 4-1 3.07 3.07 0 0 0 1.41-2.61 3 3 0 0 0 -2-2.84 40.16 40.16 0 0 0 -6.49-2.05 61.27 61.27 0 0 1 -8-2.36 13.93 13.93 0 0 1 -5.53-3.93 10.71 10.71 0 0 1 -2.32-7.26 12.29 12.29 0 0 1 2.12-7 14.31 14.31 0 0 1 6.26-5 23.9 23.9 0 0 1 9.78-1.85q8.42 0 13.27 4.17a16.23 16.23 0 0 1 5.58 11.07h-12.67a5.49 5.49 0 0 0 -2.05-3.69 7.09 7.09 0 0 0 -4.53-1.36 6.32 6.32 0 0 0 -3.69.92 2.94 2.94 0 0 0 -1.28 2.53 3.1 3.1 0 0 0 2 2.89 33 33 0 0 0 6.38 1.92 70.93 70.93 0 0 1 8.1 2.53 14 14 0 0 1 5.49 4 11.34 11.34 0 0 1 2.45 7.41 11.79 11.79 0 0 1 -2.21 7 14.53 14.53 0 0 1 -6.33 4.85 24.2 24.2 0 0 1 -9.59 1.77 25.62 25.62 0 0 1 -10.38-2.01z"/><path d="m112.27 39.4-27.22-27.23a41.57 41.57 0 0 0 -58.78 0 41.56 41.56 0 0 0 0 58.79l29.39 29.39 56.61-56.61a3.07 3.07 0 0 0 0-4.34z"/></g><path d="m59.68 46.05 27.22 27.22a41.56 41.56 0 0 1 0 58.79 41.57 41.57 0 0 1 -58.78 0l-27.22-27.23a3.07 3.07 0 0 1 0-4.34l54.44-54.44a3.07 3.07 0 0 1 4.34 0z" fill="#333"/><rect fill="#fff" height="7.94" rx="1.61" width="7.94" x="48.44" y="71.84"/><rect fill="#fff" height="7.94" rx="1.61" width="7.94" x="58.85" y="71.84"/><rect fill="#fff" height="7.94" rx="1.61" width="7.94" x="48.44" y="81.81"/><rect fill="#fff" height="7.94" rx="1.61" width="7.94" x="58.85" y="81.81"/><path d="m72.25 26.83a20 20 0 0 0 -29.27 0 1.17 1.17 0 0 0 1.71 1.59 17.61 17.61 0 0 1 25.85 0 1.19 1.19 0 0 0 .86.37 1.14 1.14 0 0 0 .79-.31 1.17 1.17 0 0 0 .06-1.65z" fill="#fff"/><path d="m68 31.65a14.29 14.29 0 0 0 -20.69 0 1.16 1.16 0 1 0 1.65 1.64 12 12 0 0 1 17.38 0 1.18 1.18 0 0 0 .83.35 1.13 1.13 0 0 0 .83-.34 1.16 1.16 0 0 0 0-1.65z" fill="#fff"/><path d="m63.29 36.49a8.43 8.43 0 0 0 -5.69-2.49h-.08a8.43 8.43 0 0 0 -5.69 2.45 1.16 1.16 0 0 0 0 1.65 1.13 1.13 0 0 0 .82.34 1.16 1.16 0 0 0 .83-.34 6.08 6.08 0 0 1 4-1.76h.08a6.08 6.08 0 0 1 4 1.76 1.17 1.17 0 0 0 1.65-1.65z" fill="#fff"/></svg>